Coordinates
version=1
nRows=19
nColumns=63
inDegrees=yes

Units are S.I. units (second, meters, Newtons, ...)
If the header above contains a line with 'inDegrees', this indicates whether rotational values are in degrees (yes) or radians (no).

endheader
time	pelvis_tilt	pelvis_list	pelvis_rotation	pelvis_tx	pelvis_ty	pelvis_tz	hip_flexion_r	hip_adduction_r	hip_rotation_r	knee_angle_r	knee_angle_r_beta	ankle_angle_r	subtalar_angle_r	mtp_angle_r	hip_flexion_l	hip_adduction_l	hip_rotation_l	knee_angle_l	knee_angle_l_beta	ankle_angle_l	subtalar_angle_l	mtp_angle_l	L5_S1_Flex_Ext	L5_S1_Lat_Bending	L5_S1_axial_rotation	L4_L5_Flex_Ext	L4_L5_Lat_Bending	L4_L5_axial_rotation	L3_L4_Flex_Ext	L3_L4_Lat_Bending	L3_L4_axial_rotation	L2_L3_Flex_Ext	L2_L3_Lat_Bending	L2_L3_axial_rotation	L1_L2_Flex_Ext	L1_L2_Lat_Bending	L1_L2_axial_rotation	L1_T12_Flex_Ext	L1_T12_Lat_Bending	L1_T12_axial_rotation	Abs_r3	Abs_r2	Abs_r1	Abs_t1	Abs_t2	neck_flexion	neck_bending	neck_rotation	arm_flex_r	arm_add_r	arm_rot_r	elbow_flex_r	pro_sup_r	wrist_flex_r	wrist_dev_r	arm_flex_l	arm_add_l	arm_rot_l	elbow_flex_l	pro_sup_l	wrist_flex_l	wrist_dev_l
0.000000	-0.592094	-6.672186	77.026026	0.203046	0.644917	0.636755	16.425894	3.158546	3.622232	13.577025	0.236964	30.618980	-2.283863	0.000000	8.051466	-2.756057	-12.869613	2.422437	0.042279	30.655714	7.022273	0.000000	-0.057548	0.617558	1.151619	-0.106873	0.821352	1.223595	-0.094546	1.501530	1.223595	-0.065772	1.501530	1.007666	-0.053439	1.259323	0.935690	-0.032883	0.956597	0.863714	-0.411062	6.985935	6.404957	0.000000	0.000000	24.603739	-7.895110	8.674949	-0.305683	-16.994144	20.189322	34.281228	77.508980	-6.714339	8.980593	5.735568	-9.434210	33.981170	19.011127	73.660355	-16.340554	4.475347
0.016949	0.461333	-6.480889	79.824666	0.199086	0.645617	0.634935	15.253509	3.635771	2.523546	12.099779	0.211181	29.750902	-3.836431	0.000000	8.049590	-3.446858	-11.502735	2.504593	0.043713	30.720238	9.104616	0.000000	-0.065199	0.748233	0.653499	-0.121082	0.995150	0.694342	-0.107116	1.819253	0.694342	-0.074516	1.819253	0.571811	-0.060544	1.525796	0.530968	-0.037255	1.159013	0.490124	-0.465713	8.464160	3.634563	0.000000	0.000000	24.394284	-7.932685	9.326773	-0.071238	-17.440240	19.271695	34.215965	79.248869	-7.428319	8.386943	5.871495	-9.110569	34.189218	18.207548	72.056838	-16.747375	2.645874
0.033898	1.356977	-6.275443	82.219603	0.195636	0.646316	0.633354	14.214571	4.039816	1.494821	10.869392	0.189707	28.993898	-5.135234	0.000000	7.981872	-4.022288	-10.265365	2.533004	0.044209	30.780210	10.721316	0.000000	-0.073057	0.856707	0.238452	-0.135674	1.139420	0.253355	-0.120025	2.082996	0.253355	-0.083497	2.082996	0.208645	-0.067841	1.746996	0.193742	-0.041745	1.327038	0.178839	-0.521839	9.691236	1.326197	0.000000	0.000000	24.207295	-7.945563	9.644915	0.346286	-17.783508	19.522078	34.079808	81.073633	-7.872861	7.648583	6.060614	-8.793625	34.737283	17.786618	71.297760	-17.268430	1.143555
0.050847	2.106902	-6.059696	84.238079	0.192665	0.647016	0.631992	13.300950	4.377071	0.541086	9.865191	0.172180	28.334012	-6.207063	0.000000	7.856920	-4.491981	-9.156352	2.514747	0.043891	30.835123	11.917086	0.000000	-0.080958	0.944800	-0.100012	-0.150347	1.256584	-0.106262	-0.133005	2.297187	-0.106262	-0.092527	2.297187	-0.087510	-0.075177	1.926636	-0.081260	-0.046259	1.463495	-0.075009	-0.578273	10.687766	-0.556235	0.000000	0.000000	24.041485	-7.935211	9.665121	0.925680	-18.034715	20.809131	33.903162	82.876680	-8.067351	6.794367	6.294174	-8.482927	35.572998	17.718322	71.274010	-17.851611	-0.059502
0.067797	2.723171	-5.837500	85.907337	0.190141	0.647718	0.630831	12.504517	4.653924	-0.332628	9.066502	0.158240	27.757290	-7.078709	0.000000	7.683337	-4.865570	-8.174541	2.456896	0.042881	30.884468	12.736635	0.000000	-0.088738	1.014334	-0.368381	-0.164796	1.349065	-0.391405	-0.145788	2.466253	-0.391405	-0.101419	2.466253	-0.322334	-0.082403	2.068431	-0.299310	-0.050705	1.571204	-0.276286	-0.633850	11.474353	-2.048827	0.000000	0.000000	23.895564	-7.903101	9.423133	1.645734	-18.204624	23.001512	33.716432	84.551422	-8.031179	5.853153	6.563425	-8.178023	36.643996	17.972647	71.876475	-18.444808	-0.991189
0.084746	3.217847	-5.612705	87.254621	0.188034	0.648424	0.629851	11.817143	4.876766	-1.121290	8.452650	0.147527	27.249778	-7.776961	0.000000	7.469732	-5.152688	-7.318779	2.366529	0.041304	30.927738	13.224674	0.000000	-0.096236	1.067131	-0.573147	-0.178720	1.419284	-0.608969	-0.158106	2.594622	-0.608969	-0.109988	2.594622	-0.501504	-0.089365	2.176094	-0.465682	-0.054989	1.652986	-0.429860	-0.687405	12.071600	-3.187673	0.000000	0.000000	23.768246	-7.850700	8.954693	2.485240	-18.304003	25.967878	33.550024	85.991269	-7.783730	4.853797	6.859618	-7.878462	37.897910	18.519578	72.996044	-18.995912	-1.679399
0.101695	3.602995	-5.389159	88.307172	0.186313	0.649136	0.629032	11.230698	5.051986	-1.819871	8.002962	0.139678	26.797520	-8.328610	0.000000	7.224710	-5.362968	-6.587915	2.250721	0.039282	30.964427	13.425914	0.000000	-0.103287	1.105011	-0.720799	-0.191815	1.469665	-0.765849	-0.169691	2.686725	-0.765849	-0.118047	2.686725	-0.630699	-0.095913	2.253339	-0.585649	-0.059018	1.711663	-0.540599	-0.737772	12.500109	-4.008867	0.000000	0.000000	23.658244	-7.779480	8.295547	3.422988	-18.343616	29.576889	33.434341	87.089631	-7.344394	3.825155	7.174003	-7.583791	39.282372	19.329101	74.523603	-19.452814	-2.152024
0.118644	3.890677	-5.170713	89.092235	0.184945	0.649856	0.628356	10.737054	5.185974	-2.423340	7.696765	0.134334	26.386563	-8.760448	0.000000	6.956877	-5.506044	-5.980794	2.116548	0.036941	30.994026	13.385066	0.000000	-0.109729	1.129797	-0.817826	-0.203778	1.502629	-0.868940	-0.180274	2.746987	-0.868940	-0.125410	2.746987	-0.715598	-0.101895	2.303881	-0.664484	-0.062699	1.750055	-0.613370	-0.783785	12.780484	-4.548504	0.000000	0.000000	23.564270	-7.690909	7.481436	4.437769	-18.334229	33.697203	33.399790	87.739918	-6.732557	2.796083	7.497829	-7.293558	40.745015	20.371204	76.350042	-19.763406	-2.436958
0.135593	4.092957	-4.961217	89.637053	0.183900	0.650585	0.627802	10.328081	5.285120	-2.926666	7.513383	0.131133	26.002951	-9.099264	0.000000	6.674839	-5.591548	-5.496264	1.971086	0.034402	31.016028	13.146840	0.000000	-0.115398	1.143308	-0.870719	-0.214306	1.520599	-0.925139	-0.189588	2.779839	-0.925139	-0.131889	2.779839	-0.761879	-0.107159	2.331433	-0.707459	-0.065939	1.770984	-0.653039	-0.824279	12.933327	-4.842678	0.000000	0.000000	23.485036	-7.586457	6.548104	5.508373	-18.286608	38.197477	33.476775	87.835541	-5.967607	1.795438	7.822347	-7.007313	42.233472	21.615872	78.366247	-19.875576	-2.562091
0.152542	4.221899	-4.764522	89.968868	0.183146	0.651324	0.627352	9.995650	5.355812	-3.324820	7.432143	0.129715	25.632731	-9.371850	0.000000	6.387203	-5.629114	-5.133171	1.821411	0.031790	31.029926	12.755947	0.000000	-0.120132	1.147367	-0.885967	-0.223096	1.525998	-0.941340	-0.197364	2.789707	-0.941340	-0.137298	2.789707	-0.775221	-0.111554	2.339710	-0.719848	-0.068643	1.777271	-0.664475	-0.858088	12.979240	-4.927482	0.000000	0.000000	23.419255	-7.467593	5.531294	6.613591	-18.211516	42.946372	33.695700	87.269910	-5.068931	0.852075	8.138805	-6.724602	43.695376	23.033090	80.463107	-19.737218	-2.555318
0.169492	4.289566	-4.584476	90.114923	0.182653	0.652077	0.626986	9.731632	5.404441	-3.612771	7.432372	0.129719	25.261948	-9.604995	0.000000	6.102574	-5.628375	-4.890364	1.674599	0.029227	31.035212	12.257098	0.000000	-0.123766	1.143794	-0.870060	-0.229846	1.521246	-0.924439	-0.203335	2.781021	-0.924439	-0.141452	2.781021	-0.761302	-0.114929	2.332425	-0.706924	-0.070720	1.771737	-0.652545	-0.884047	12.938827	-4.839012	0.000000	0.000000	23.365640	-7.335787	4.466750	7.732214	-18.119721	47.812545	34.086972	85.936435	-4.055918	-0.005149	8.438456	-6.444975	45.078358	24.592846	82.531509	-19.296221	-2.444529
0.186441	4.308349	-4.445238	90.099296	0.182375	0.652856	0.626644	9.537638	5.440410	-3.740204	7.467812	0.130338	24.832505	-9.827051	0.000000	5.857847	-5.595954	-4.775168	1.534103	0.026775	30.990770	11.774369	0.000000	-0.124226	1.136586	-0.838717	-0.230700	1.511659	-0.891137	-0.204091	2.763494	-0.891137	-0.141978	2.763494	-0.733877	-0.115356	2.317725	-0.681457	-0.070983	1.760571	-0.629038	-0.887335	12.857283	-4.664692	0.000000	0.000000	23.368659	-7.182056	3.536225	8.804684	-18.082556	52.431309	34.813171	82.506474	-2.854447	-0.733951	8.603475	-6.140927	45.800093	26.346496	84.082162	-18.177961	-2.357462
0.203390	4.295112	-4.333783	89.956644	0.182316	0.653684	0.626335	9.384985	5.471510	-3.656722	7.528822	0.131403	24.332882	-10.206333	0.000000	5.633200	-5.549759	-4.815240	1.427525	0.024915	30.971335	11.302764	0.000000	-0.123270	1.125030	-0.790105	-0.228925	1.496291	-0.839486	-0.202521	2.735399	-0.839486	-0.140886	2.735399	-0.691342	-0.114469	2.294162	-0.641960	-0.070437	1.742672	-0.592579	-0.880508	12.726569	-4.394325	0.000000	0.000000	23.324589	-7.006907	2.587869	9.860104	-18.052391	56.842616	35.966247	77.786449	-1.547409	-1.292575	8.774434	-5.851565	46.517264	28.150837	85.576154	-16.457388	-2.183915
0.220339	4.246019	-4.252016	89.655430	0.182488	0.654528	0.626035	9.290455	5.490962	-3.453389	7.635580	0.133266	23.827802	-10.574327	0.000000	5.416883	-5.485494	-4.995262	1.330279	0.023218	30.946773	10.796994	0.000000	-0.120342	1.109673	-0.714187	-0.223486	1.475865	-0.758824	-0.197709	2.698058	-0.758824	-0.137538	2.698058	-0.624914	-0.111749	2.262845	-0.580277	-0.068763	1.718883	-0.535640	-0.859588	12.552841	-3.972095	0.000000	0.000000	23.250121	-6.811232	1.632995	10.840521	-18.052971	60.963058	37.516499	71.735975	-0.286973	-1.626172	8.953376	-5.580387	47.213288	29.974740	86.747282	-14.187135	-1.982283
0.237288	4.210163	-4.197824	89.345049	0.182698	0.655401	0.625738	9.209424	5.523576	-3.190737	7.708612	0.134541	23.262622	-11.008707	0.000000	5.247912	-5.442608	-5.232767	1.285974	0.022444	30.926478	10.363852	0.000000	-0.116709	1.097244	-0.645691	-0.216741	1.459335	-0.686047	-0.191741	2.667839	-0.686047	-0.133387	2.667839	-0.564980	-0.108376	2.237500	-0.524624	-0.066688	1.699631	-0.484268	-0.833642	12.412245	-3.591141	0.000000	0.000000	23.195355	-6.641702	0.771956	11.773295	-18.056697	64.685747	39.310879	64.801902	0.907724	-1.686245	9.118548	-5.314225	47.797267	31.759499	87.390024	-11.452737	-1.821081
0.254237	4.189552	-4.173904	89.004748	0.182976	0.656277	0.625449	9.153000	5.582164	-2.801777	7.757095	0.135387	22.631192	-11.565624	0.000000	5.124128	-5.427410	-5.601078	1.285001	0.022427	30.905205	10.081718	0.000000	-0.112288	1.088570	-0.579366	-0.208530	1.447798	-0.615577	-0.184478	2.646749	-0.615577	-0.128334	2.646749	-0.506946	-0.104271	2.219812	-0.470735	-0.064161	1.686195	-0.434525	-0.802063	12.314122	-3.222262	0.000000	0.000000	23.177502	-6.498416	0.039927	12.618029	-18.066044	67.912440	41.247444	57.509057	2.016118	-1.459823	9.254654	-5.051140	48.192899	33.481158	87.330009	-8.376529	-1.714860
0.271186	4.191062	-4.177334	88.658471	0.183288	0.657145	0.625182	9.116278	5.666120	-2.346370	7.776949	0.135733	21.960111	-12.165021	0.000000	5.048431	-5.444719	-6.061543	1.327504	0.023169	30.866274	9.941327	0.000000	-0.107704	1.084812	-0.519584	-0.200016	1.442800	-0.552058	-0.176946	2.637612	-0.552058	-0.123094	2.637612	-0.454636	-0.100014	2.212148	-0.422162	-0.061542	1.680374	-0.389688	-0.769316	12.271609	-2.889769	0.000000	0.000000	23.216688	-6.395245	-0.537731	13.352773	-18.069043	70.540238	43.219691	50.208046	3.019480	-0.943355	9.346800	-4.788004	48.325040	35.107109	86.545842	-5.086345	-1.661950
0.288136	4.228159	-4.202078	88.354905	0.183551	0.657997	0.624942	9.089747	5.780104	-1.898869	7.760701	0.135450	21.256943	-12.757823	0.000000	5.027245	-5.503057	-6.555002	1.415815	0.024711	30.813115	9.930396	0.000000	-0.102665	1.087948	-0.473422	-0.190658	1.446971	-0.503011	-0.168668	2.645236	-0.503011	-0.117335	2.645236	-0.414244	-0.095334	2.218543	-0.384655	-0.058663	1.685231	-0.355067	-0.733323	12.307084	-2.633032	0.000000	0.000000	23.306817	-6.340281	-0.938194	13.951198	-18.074853	72.503769	45.141277	43.223099	3.915785	-0.199798	9.405154	-4.519894	48.249398	36.580581	85.085386	-1.709295	-1.692840
0.305085	4.304885	-4.253274	88.079927	0.183817	0.658796	0.624714	9.081146	5.934621	-1.416945	7.716437	0.134677	20.514730	-13.382570	0.000000	5.061984	-5.614194	-7.139035	1.549464	0.027043	30.767921	10.110031	0.000000	-0.095323	1.098221	-0.433903	-0.177025	1.460634	-0.461022	-0.156607	2.670215	-0.461022	-0.108945	2.670215	-0.379666	-0.088517	2.239493	-0.352547	-0.054468	1.701145	-0.325428	-0.680885	12.423297	-2.413241	0.000000	0.000000	23.439461	-6.323475	-1.153697	14.369950	-18.071106	73.706055	46.963134	36.726133	4.703743	0.787653	9.416754	-4.268117	48.025433	37.903532	83.076230	1.657618	-1.858844
